<svg width="722" height="398" viewBox="0 0 722 398" fill="none" xmlns="http://www.w3.org/2000/svg">
<path fill-rule="evenodd" clip-rule="evenodd" d="M619.78 384.879L721.98 259.949H429.1C409.9 273.499 386.47 281.459 361.18 281.459C335.89 281.459 312.47 273.499 293.26 259.949H0.379883L102.58 384.879H619.77H619.78Z" fill="#18988B"/>
<path fill-rule="evenodd" clip-rule="evenodd" d="M361.18 397.3L609.61 397.31L616.33 389.1H106.03L112.75 397.31L361.18 397.3Z" fill="#18988B"/>
<path fill-rule="evenodd" clip-rule="evenodd" d="M504.46 143.52C499.68 148.33 494.66 152.91 489.42 157.22H457.23C463.39 153.03 469.25 148.45 474.8 143.52H504.46Z" fill="#18988B"/>
<path fill-rule="evenodd" clip-rule="evenodd" d="M361.18 143.451C350.31 143.451 341.49 152.261 341.49 163.141C310.63 158.411 283.37 142.711 263.83 120.151H233.22H225.76H197.97C202.39 126.211 207.14 132.001 212.18 137.521H241.15H249.63C279.01 164.461 318.17 180.901 361.17 180.901C404.17 180.901 443.32 164.461 472.7 137.531H481.18L481.16 137.551H510.13C515.19 132.021 519.95 126.211 524.37 120.141H496.58V120.161H489.1V120.141H458.51C438.97 142.701 411.71 158.391 380.85 163.131C380.85 152.261 372.04 143.441 361.16 143.441L361.18 143.451Z" fill="#18988B"/>
<path fill-rule="evenodd" clip-rule="evenodd" d="M232.94 157.22C227.69 152.9 222.66 148.31 217.87 143.48H247.53C253.08 148.43 258.97 153.02 265.13 157.22H232.94Z" fill="#18988B"/>
<path fill-rule="evenodd" clip-rule="evenodd" d="M344.47 202.529C306.7 199.409 270.9 185.869 240.54 163.189H274.53C294.85 175.169 317.86 183.059 342.45 185.739C356.23 187.029 367.48 186.829 379.57 185.779C404.28 183.129 427.42 175.219 447.84 163.189H481.83C452.46 185.129 416.92 199.249 378.29 202.499C377.78 202.549 377.21 202.599 376.58 202.639L376.07 209.439C373.44 247.159 367.77 273.269 361.2 273.269C354.63 273.269 348.94 247.109 346.32 209.329L345.76 202.569L344.47 202.519V202.529Z" fill="#18988B"/>
<path fill-rule="evenodd" clip-rule="evenodd" d="M386.76 273.41C384.64 253.76 382.01 245.63 379.07 231.84C377 253.25 374.11 261.73 370.71 273.24L386.77 273.42L386.76 273.41Z" fill="#18988B"/>
<path fill-rule="evenodd" clip-rule="evenodd" d="M343.26 231.779C340.35 245.459 337.72 253.409 335.61 272.849L351.57 273.019C348.19 261.509 345.32 253.079 343.26 231.779Z" fill="#18988B"/>
<path fill-rule="evenodd" clip-rule="evenodd" d="M372.93 60.4694V60.4994L373.1 60.7594V60.7894L373.26 61.0494V61.0794L373.42 61.3494C374.39 63.2294 374.94 65.3794 374.94 67.6394C374.94 72.2994 372.62 76.4194 369.08 78.8994L375.37 142.009C371.3 139.329 366.43 137.769 361.19 137.769C355.95 137.769 351.08 139.329 347.01 142.009L353.3 78.8994C349.76 76.4094 347.44 72.2994 347.44 67.6394C347.44 65.3694 347.99 63.2394 348.96 61.3494L349.1 61.0794V61.0494L349.26 60.7894V60.7594L349.43 60.4994L349.45 60.4694C351.86 56.5094 356.22 53.8594 361.2 53.8594C366.18 53.8594 370.54 56.5094 372.95 60.4694H372.93Z" fill="#18988B"/>
<path fill-rule="evenodd" clip-rule="evenodd" d="M361.18 0.0898438L366.12 49.6498C364.55 49.2198 362.89 48.9898 361.18 48.9898C359.47 48.9898 357.81 49.2198 356.24 49.6498L361.18 0.0898438Z" fill="#18988B"/>
<path fill-rule="evenodd" clip-rule="evenodd" d="M392.96 247.23V247.27C391.78 247.72 390.58 248.15 389.37 248.55C390.55 253.92 391.46 259.15 392.25 264.32C429.66 252.79 458.18 220.99 464.98 181.74L464.77 181.86V181.83C458.77 185.28 452.6 188.42 446.28 191.26C437.91 217.03 418.17 237.66 392.97 247.24L392.96 247.23Z" fill="#18988B"/>
<path fill-rule="evenodd" clip-rule="evenodd" d="M257.61 181.86L257.4 181.74C264.2 220.99 292.71 252.79 330.12 264.31C330.91 259.14 331.81 253.91 333 248.54C331.54 248.06 330.11 247.53 328.68 246.98V246.95C303.84 237.26 284.39 216.77 276.1 191.25C269.78 188.42 263.61 185.27 257.6 181.82V181.85L257.61 181.86Z" fill="#18988B"/>
<path fill-rule="evenodd" clip-rule="evenodd" d="M377.92 59.6191C411.38 64.9591 439.58 86.0691 454.68 115.079L453.82 116.069C450.39 120.029 446.74 123.729 442.9 127.179C431.13 100.849 407.01 81.2491 377.9 75.7391C379.09 73.2891 379.75 70.5491 379.75 67.6491C379.75 64.7491 379.09 62.0491 377.93 59.6191H377.92Z" fill="#18988B"/>
<path fill-rule="evenodd" clip-rule="evenodd" d="M267.68 115.079C282.78 86.0691 310.98 64.9591 344.44 59.6191C343.27 62.0491 342.62 64.7791 342.62 67.6491C342.62 70.5191 343.28 73.2991 344.47 75.7391C315.36 81.2391 291.23 100.839 279.47 127.179C275.62 123.729 271.97 120.029 268.54 116.069L267.68 115.079Z" fill="#18988B"/>
<path fill-rule="evenodd" clip-rule="evenodd" d="M196.68 306.12H169.46L152.97 285.93H219.13V345.73C219.13 365.09 205.95 377.98 187.01 377.98C168.07 377.98 154.89 364.96 154.89 345.73V337.57H177.34V344.67C177.34 351.1 179.76 356.87 187.01 356.87C194.26 356.87 196.68 352.01 196.68 345.47V306.12Z" fill="white"/>
<path fill-rule="evenodd" clip-rule="evenodd" d="M379.49 338.72V285.93H401.68V376.37H379.72L340.65 323.52V376.37H318.46V285.93H340.46L379.49 338.72Z" fill="white"/>
<path fill-rule="evenodd" clip-rule="evenodd" d="M529.16 331.29L494.89 285.93H521.06L540.38 310.08L559.57 285.93H585.73L551.61 331.28V376.37H529.16V331.29Z" fill="white"/>
<path fill-rule="evenodd" clip-rule="evenodd" d="M440.13 306.12H411.83V285.93H490.88V306.12H462.58V376.37H440.13V306.12Z" fill="white"/>
<path fill-rule="evenodd" clip-rule="evenodd" d="M260.85 306.11V321.06H294.93V341.25H260.85V356.2H302.37V376.38H238.27V285.93H302.4V306.11H260.85Z" fill="white"/>
</svg>
